<svg xmlns="http://www.w3.org/2000/svg" width="100" height="100" viewBox="0 0 256 256"><path fill="#fff" stroke-miterlimit="10" d="M9.998 3C6.139 3 3 6.142 3 10.002v10C3 23.861 6.142 27 10.002 27h10C23.861 27 27 23.858 27 19.998v-10C27 6.139 23.858 3 19.998 3zM22 7a1 1 0 1 1 0 2 1 1 0 0 1 0-2m-7 2c3.309 0 6 2.691 6 6s-2.691 6-6 6-6-2.691-6-6 2.691-6 6-6m0 2a4 4 0 1 0 0 8 4 4 0 0 0 0-8" font-family="none" font-size="none" font-weight="none" style="mix-blend-mode:normal" text-anchor="none" transform="scale(8.53333)"/></svg>