<svg xmlns="http://www.w3.org/2000/svg" width="682.667" height="682.667" viewBox="0 0 512 512"><g fill="#fff"><path d="M246 45.2c-2.5 1.4-5.8 4.4-7.5 6.7-2.9 4.1-3 4.8-3.3 16.6-.3 10.7-.1 12.8 1.6 16.1 8.5 16.4 29.9 16.4 38.4 0 1.7-3.3 1.9-5.4 1.6-16.1-.3-11.4-.5-12.4-3-16.1-4.4-6.2-9-8.8-16.7-9.2-5.5-.3-7.4.1-11.1 2M111.5 100.9c-10.7 5-15.3 17.2-10.5 27.9 2.4 5.4 11.1 14.6 17 18 9.8 5.8 22.9 2.4 28.7-7.6 3.9-6.5 3.9-14.8.1-21.2-3.4-5.9-12.6-14.6-18-17-5.4-2.5-12.1-2.5-17.3-.1M383.2 101c-5.3 2.4-14.6 11.1-17.9 16.7-1.4 2.4-2.7 6.5-3 9.5-.7 7.4 3.3 15 10.2 19.3 6.6 4.1 14.9 4.2 21.5.3 5.9-3.4 14.6-12.6 17-18 8-17.6-10.2-35.8-27.8-27.8M233 118.4c-57.4 10.2-100.5 51.7-113.7 109.6-2.5 10.7-2.5 45.3 0 56 2.9 12.9 6.9 24.1 12.3 34.8 20.8 40.9 59.9 68.9 105.2 75.3 10.6 1.5 38.2.6 47.7-1.5 58.2-13 101.3-59.2 109.6-117.4 1.5-10.6.6-38.2-1.5-47.7-6.2-27.3-18.9-50.7-38.2-69.9-19.3-19.4-42.3-31.9-69.9-38.2-9.6-2.2-41.3-2.8-51.5-1m-29.7 69.3c2.4 46.9 21.5 81.8 57.6 105 8.2 5.3 24.2 12.8 34.8 16.2 7.8 2.6 14.3 4.1 33.2 7.8 2.3.4 2.1.8-4 6.9-12.5 12.7-29.3 22.3-46.5 26.5-12.6 3.1-32.2 3.1-44.8 0-9.6-2.3-24.4-8.9-32.3-14.2-6.9-4.7-18.8-16.4-23.9-23.5-6.2-8.7-13-23.4-15.5-34-3.1-12.6-3.1-32.2 0-44.8 3.8-15.5 12.3-31.5 22.6-42.5 5.4-5.9 16.1-15.1 17.4-15.1.4 0 1.1 5.3 1.4 11.7M53.9 237.3c-2.4 1.3-5.7 4.3-7.4 6.6-2.7 3.9-3 5-3 12 0 6.8.3 8.2 2.7 11.7 1.5 2.1 4.4 5 6.5 6.4 3.3 2.3 4.8 2.5 15.9 2.8 10.6.3 12.7.1 16-1.6 16.4-8.4 16.4-29.9.2-38.3-3-1.5-5.9-1.9-15.1-1.9-10 0-11.9.3-15.8 2.3M427.5 236.6c-16.5 8.9-16.6 30.1-.1 38.6 3.3 1.7 5.4 1.9 16.1 1.6 11.4-.3 12.4-.5 16.1-3 2.1-1.5 5-4.4 6.4-6.5 2.1-3.1 2.5-4.8 2.5-11.3s-.4-8.2-2.5-11.3c-1.4-2.1-4.3-5-6.4-6.5-3.7-2.5-4.6-2.7-16.5-3-10.1-.2-13.2.1-15.6 1.4M121.9 363.3c-2 .8-4.9 2.3-6.5 3.4-5 3.5-12.4 12.1-14.4 16.6-8 17.5 10.2 35.7 27.8 27.7 5.4-2.4 14.6-11.1 18-17 3.8-6.4 3.8-14.7-.1-21.2-4.9-8.5-16.1-12.7-24.8-9.5M374 364.7c-7.7 4-11.5 10.3-11.5 18.7 0 4.8.6 7.1 2.7 10.6 3.4 5.9 12.6 14.6 18 17 17.6 8 35.8-10.2 27.8-27.8-2.4-5.3-11.1-14.6-16.7-17.9-2.4-1.4-6.5-2.7-9.5-3-4.5-.4-6.1-.1-10.8 2.4M248 416.6c-4.6 2-8.7 6-11.2 10.8-1.7 3.3-1.9 5.4-1.6 16 .3 11.1.5 12.6 2.8 15.9 1.4 2.1 4.3 5 6.4 6.5 3.5 2.4 4.9 2.7 11.6 2.7s8.1-.3 11.6-2.7c2.1-1.5 5-4.4 6.4-6.5 2.3-3.3 2.5-4.8 2.8-15.9.3-10.6.1-12.7-1.6-16-5.4-10.4-17.2-15.1-27.2-10.8"/></g></svg>